<svg xmlns="http://www.w3.org/2000/svg"  viewBox="0 0 64 64" width="50px" height="50px"><path d="M 24.5 6 C 17.8 6 12.199219 10.900391 11.199219 17.400391 C 13.099219 17.000391 14.900391 17.000781 16.400391 17.300781 L 15.800781 19.099609 C 9.2007812 19.999609 4 25.6 4 32.5 C 4 35.7 5.1 38.7 7 41 L 12.099609 41 L 12.099609 33.400391 L 24.900391 33.400391 C 25.100391 30.200391 26.800781 27.199609 29.300781 25.099609 C 31.900781 23.099609 35.100781 22.199609 38.300781 22.599609 C 43.500781 23.399609 47.499609 27.499219 48.099609 32.699219 C 48.399609 35.699219 47.600781 38.7 45.800781 41 L 57.5 41 C 59.1 39.1 60 36.7 60 34 C 60 27.9 55.1 23 49 23 L 48.699219 22.099609 C 49.799219 21.499609 51.4 21 53 21 L 53 20.5 C 53 14.7 48.3 10 42.5 10 C 40 10 37.700391 10.800781 35.900391 12.300781 C 33.500391 8.5007812 29.3 6 24.5 6 z M 36.853516 26.957031 C 33.218635 26.874235 30.06722 29.648122 29.707031 33.25 L 32.693359 33.548828 C 32.908962 31.392804 34.946463 29.696343 37.208984 29.988281 L 37.210938 29.988281 L 37.214844 29.988281 C 38.86173 30.194142 40.399743 31.793644 40.611328 33.486328 C 40.901814 35.91208 39.049048 37.900391 36.599609 37.900391 L 15 37.900391 L 15 40.900391 L 36.599609 40.900391 C 40.748094 40.900391 44.095474 37.29059 43.589844 33.119141 L 43.587891 33.117188 L 43.587891 33.113281 C 43.199554 30.006591 40.74009 27.406667 37.587891 27.011719 L 37.585938 27.011719 C 37.339995 26.9802 37.095841 26.962551 36.853516 26.957031 z M 23.400391 46 L 23.400391 49 L 45 49 C 47.166667 49 49 50.833333 49 53 C 49 55.166667 47.166667 57 45 57 C 42.824138 57 41.214134 55.510962 40.992188 53.439453 L 38.007812 53.759766 C 38.385866 57.288257 41.375862 60 45 60 C 48.833333 60 52 56.833333 52 53 C 52 49.166667 48.833333 46 45 46 L 23.400391 46 z"/></svg>