<svg xmlns="http://www.w3.org/2000/svg"  viewBox="0 0 64 64" width="50px" height="50px"><path d="M60 35c0 2.66-.94 5.1-2.51 7H7.01C5.13 39.68 4 36.72 4 33.5c0-6.888 5.153-12.553 11.814-13.384l.61-1.829c-1.554-.291-3.291-.313-5.244.053C12.2 11.91 17.77 7 24.5 7c4.818 0 9.033 2.528 11.421 6.322C37.722 11.872 40.008 11 42.5 11 48.3 11 53 15.7 53 21.5c0 .17 0 .34-.01.51-1.627.023-3.157.537-4.331 1.076l.305.916C48.977 24.002 48.988 24 49 24 55.08 24 60 28.92 60 35zM33.083 58.025c-1.13 1.13-2.961 1.13-4.091 0s-1.13-2.961 0-4.091c1.13-1.13 5.864-1.773 5.864-1.773S34.212 56.896 33.083 58.025zM20.083 53.025c-1.13 1.13-2.961 1.13-4.091 0s-1.13-2.961 0-4.091c1.13-1.13 5.864-1.773 5.864-1.773S21.212 51.896 20.083 53.025zM47.083 53.025c-1.13 1.13-2.961 1.13-4.091 0s-1.13-2.961 0-4.091c1.13-1.13 5.864-1.773 5.864-1.773S48.212 51.896 47.083 53.025z"/></svg>