<svg xmlns="http://www.w3.org/2000/svg"  viewBox="0 0 64 64" width="50px" height="50px"><path d="M60 34c0 2.66-.94 5.1-2.51 7H7.01C5.13 38.68 4 35.72 4 32.5c0-6.888 5.153-12.553 11.814-13.384l.61-1.829c-1.554-.291-3.291-.313-5.244.053C12.2 10.91 17.77 6 24.5 6c4.818 0 9.033 2.528 11.421 6.322C37.722 10.872 40.008 10 42.5 10 48.3 10 53 14.7 53 20.5c0 .17 0 .34-.01.51-1.627.023-3.157.537-4.331 1.076l.305.916C48.977 23.002 48.988 23 49 23 55.08 23 60 27.92 60 34zM18.083 51.025c-1.13 1.13-2.961 1.13-4.091 0s-1.13-2.961 0-4.091c1.13-1.13 5.864-1.773 5.864-1.773S19.212 49.896 18.083 51.025zM49.083 51.025c-1.13 1.13-2.961 1.13-4.091 0s-1.13-2.961 0-4.091c1.13-1.13 5.864-1.773 5.864-1.773S50.212 49.896 49.083 51.025zM36.472 46.421L35.028 45.588 32 49.705 28.972 45.588 27.528 46.422 29.579 51.102 24.5 51.667 24.5 53.333 29.579 53.898 27.528 58.578 28.972 59.412 32 55.295 35.028 59.412 36.472 58.579 34.421 53.898 39.5 53.333 39.5 51.667 34.421 51.102z"/></svg>