<svg xmlns="http://www.w3.org/2000/svg"  viewBox="0 0 64 64" width="50px" height="50px"><path d="M 24.5 6 C 17.77 6 12.199688 10.909844 11.179688 17.339844 C 13.129687 16.969844 14.869922 16.999062 16.419922 17.289062 L 15.810547 19.119141 C 9.1505469 19.949141 4 25.61 4 32.5 C 4 35.72 5.1297656 38.68 7.0097656 41 L 12.759766 41 L 17.5 27 L 36 24 L 30 35 L 51 33 L 46.810547 41 L 57.490234 41 C 59.060234 39.1 60 36.66 60 34 C 60 27.92 55.08 23 49 23 L 48.960938 23 L 48.660156 22.089844 C 49.830156 21.549844 51.360234 21.029766 52.990234 21.009766 C 53.000234 20.839766 53 20.67 53 20.5 C 53 14.7 48.3 10 42.5 10 C 40.01 10 37.719922 10.870312 35.919922 12.320312 C 33.529922 8.5303125 29.32 6 24.5 6 z M 29 29 L 20 30 L 15 43 L 22 43 L 20 52 L 22 53 L 32.25 37.630859 L 24 38 L 29 29 z M 46 37 L 37.230469 37.398438 L 32 51 L 39 51 L 37 60 L 39 61 L 49.25 45.630859 L 41 46 L 46 37 z"/></svg>