<svg xmlns="http://www.w3.org/2000/svg"  viewBox="0 0 64 64" width="50px" height="50px"><path d="M 42 1.5898438 L 39.140625 5.3496094 C 38.320625 6.4096094 36.890391 6.7992969 35.650391 6.2792969 L 31.289062 4.4492188 L 30.689453 9.140625 C 30.519453 10.470625 29.470625 11.519453 28.140625 11.689453 L 23.449219 12.289062 L 24.439453 14.640625 C 26.979453 15.260625 28.989922 16.229844 30.419922 17.089844 C 32.579922 12.879844 36.96 10 42 10 C 49.17 10 55 15.83 55 23 C 55 26.65 53.490781 29.960312 51.050781 32.320312 C 52.640781 32.790312 54.119219 33.690234 55.199219 34.490234 C 55.409219 34.400234 55.629375 34.340547 55.859375 34.310547 L 60.550781 33.710938 L 58.720703 29.349609 C 58.200703 28.109609 58.590391 26.679375 59.650391 25.859375 L 63.410156 23 L 59.650391 20.140625 C 58.590391 19.320625 58.200703 17.890391 58.720703 16.650391 L 60.550781 12.289062 L 55.859375 11.689453 C 54.529375 11.519453 53.480547 10.470625 53.310547 9.140625 L 52.710938 4.4492188 L 48.349609 6.2792969 C 47.109609 6.7992969 45.679375 6.4096094 44.859375 5.3496094 L 42 1.5898438 z M 21 16.169922 C 14.75 16.169922 9.5691406 20.730937 8.6191406 26.710938 C 10.429141 26.370938 12.050234 26.390156 13.490234 26.660156 L 12.929688 28.359375 C 6.7396875 29.129375 1.9394531 34.400781 1.9394531 40.800781 C 1.9394531 43.480781 2.7709375 45.96 4.2109375 48 L 52.189453 48 C 53.339453 46.35 54 44.349219 54 42.199219 C 54 36.549219 49.419531 31.970703 43.769531 31.970703 C 43.459531 31.970703 43.140078 31.989531 42.830078 32.019531 L 42.529297 31.119141 C 43.619297 30.629141 45.039062 30.139375 46.539062 30.109375 C 46.549062 30.009375 46.550781 29.900781 46.550781 29.800781 C 46.550781 24.420781 42.190781 20.050781 36.800781 20.050781 C 34.800781 20.050781 32.940391 20.659453 31.400391 21.689453 C 29.140391 18.359453 25.32 16.169922 21 16.169922 z M 17.855469 51.160156 C 17.855469 51.160156 13.122187 51.803594 11.992188 52.933594 C 10.862188 54.063594 10.862187 55.895391 11.992188 57.025391 C 13.122188 58.155391 14.952031 58.155391 16.082031 57.025391 C 17.211031 55.896391 17.855469 51.160156 17.855469 51.160156 z M 44.855469 51.160156 C 44.855469 51.160156 40.122188 51.803594 38.992188 52.933594 C 37.862188 54.063594 37.862187 55.895391 38.992188 57.025391 C 40.122187 58.155391 41.952031 58.155391 43.082031 57.025391 C 44.211031 55.896391 44.855469 51.160156 44.855469 51.160156 z M 30.855469 55.160156 C 30.855469 55.160156 26.122187 55.803594 24.992188 56.933594 C 23.862188 58.063594 23.862187 59.895391 24.992188 61.025391 C 26.122187 62.155391 27.952031 62.155391 29.082031 61.025391 C 30.211031 59.896391 30.855469 55.160156 30.855469 55.160156 z"/></svg>