<svg xmlns="http://www.w3.org/2000/svg"  viewBox="0 0 64 64" width="50px" height="50px"><path d="M60,35c0,2.7-0.9,5.1-2.5,7H7c-1.9-2.3-3-5.3-3-8.5c0-6.9,5.2-12.6,11.8-13.4l0.6-1.8c-1.6-0.3-3.3-0.3-5.2,0.1	C12.2,11.9,17.8,7,24.5,7c4.8,0,9,2.5,11.4,6.3c1.8-1.5,4.1-2.3,6.6-2.3C48.3,11,53,15.7,53,21.5c0,0.2,0,0.3,0,0.5	c-1.6,0-3.2,0.5-4.3,1.1L49,24c0,0,0,0,0,0C55.1,24,60,28.9,60,35z M33.1,58c-1.1,1.1-3,1.1-4.1,0s-1.1-3,0-4.1s5.9-1.8,5.9-1.8	S34.2,56.9,33.1,58z M20.1,53c-1.1,1.1-3,1.1-4.1,0s-1.1-3,0-4.1s5.9-1.8,5.9-1.8S21.2,51.9,20.1,53z M47.1,53c-1.1,1.1-3,1.1-4.1,0	s-1.1-3,0-4.1s5.9-1.8,5.9-1.8S48.2,51.9,47.1,53z"/></svg>