<svg xmlns="http://www.w3.org/2000/svg"  viewBox="0 0 64 64" width="50px" height="50px"><path d="M 30 2.3007812 C 21.2 6.3007812 15 15.2 15 25.5 C 15 29.1 15.699609 32.499609 17.099609 35.599609 L 31 36 L 32 44 L 43 45 L 44 50.800781 C 52.8 49.600781 60.199219 43.9 63.699219 36 C 60.499219 37.5 56.999219 38.300781 53.199219 38.300781 C 39.099219 38.300781 27.699219 26.900781 27.699219 12.800781 C 27.699219 9.1007813 28.5 5.5007813 30 2.3007812 z M 3.3007812 38 L 3.3007812 43 L 28.5 42.5 L 28.5 38.5 L 3.3007812 38 z M 14.5 47 L 14.5 52 L 40 51.5 L 40 47.5 L 14.5 47 z M 32.699219 56 L 3 56.5 L 3 60.5 L 32.699219 61 L 32.699219 56 z"/></svg>