<svg xmlns="http://www.w3.org/2000/svg"  viewBox="0 0 64 64" width="50px" height="50px"><path d="M60 34c0 2.66-.94 5.1-2.51 7H7.01C5.13 38.68 4 35.72 4 32.5c0-6.888 5.153-12.553 11.814-13.384l.61-1.829c-1.554-.291-3.291-.313-5.244.053C12.2 10.91 17.77 6 24.5 6c4.818 0 9.033 2.528 11.421 6.322C37.722 10.872 40.008 10 42.5 10 48.3 10 53 14.7 53 20.5c0 .17 0 .34-.01.51-1.627.023-3.157.537-4.331 1.076l.305.916C48.977 23.002 48.988 23 49 23 55.08 23 60 27.92 60 34zM39.05 22.421l-1.443-.833-3.028 4.117-3.028-4.116-1.443.833 2.051 4.681-5.079.564 0 1.667 5.079.564-2.051 4.681 1.443.833 3.028-4.116 3.028 4.116 1.443-.833-2.051-4.681 5.079-.564 0-1.667-5.079-.564L39.05 22.421zM28.361 53.402L28.855 52.044 24.886 50.079 27.944 46.875 27.015 45.769 23.329 48.223 22.083 43.973 20.66 44.224 20.943 48.644 16.639 47.598 16.145 48.955 20.114 50.921 17.056 54.125 17.985 55.231 21.671 52.777 22.918 57.027 24.34 56.776 24.057 52.356zM43.779 51.042L42.721 50.431 40.5 53.45 38.279 50.431 37.221 51.042 38.725 54.475 35 54.889 35 56.111 38.725 56.525 37.221 59.958 38.279 60.569 40.5 57.55 42.721 60.569 43.779 59.958 42.275 56.525 46 56.111 46 54.889 42.275 54.475z"/></svg>