<svg xmlns="http://www.w3.org/2000/svg"  viewBox="0 0 64 64" width="50px" height="50px"><path d="M 26.728516 7.0800781 C 26.328047 7.0686719 25.926797 7.0816406 25.529297 7.1191406 C 23.929297 7.2991406 22.370547 7.8690625 21.060547 8.7890625 C 19.740547 9.7190625 18.650938 10.969687 17.960938 12.429688 C 17.590938 13.149687 17.349453 13.930703 17.189453 14.720703 C 17.119453 15.120703 17.039297 15.519922 17.029297 15.919922 L 17.029297 16.009766 C 18.299297 16.639766 19.96 16.869219 21 16.949219 L 21 16.519531 L 21.009766 16.160156 C 21.009766 15.930156 21.059844 15.700938 21.089844 15.460938 C 21.179844 15.000938 21.299766 14.550859 21.509766 14.130859 C 21.899766 13.270859 22.530781 12.520938 23.300781 11.960938 C 24.060781 11.390937 24.979922 11.070937 25.919922 10.960938 C 26.869922 10.870937 27.840937 11.010859 28.710938 11.380859 C 30.450937 12.130859 31.79 13.830703 32 15.720703 C 32.28 17.620703 31.479766 19.569531 30.009766 20.769531 C 29.269766 21.339531 28.400703 21.770156 27.470703 21.910156 C 26.670703 22.050156 25.220469 21.989531 23.980469 22.019531 L 16.300781 22.070312 C 11.210781 22.090312 6.1 22.07 1 22 L 2.9609375 26.910156 C 7.4309375 26.680156 11.899375 26.490313 16.359375 26.320312 L 24.019531 26.080078 L 25.929688 26.019531 C 26.499687 25.989531 27.399922 25.999844 28.169922 25.839844 C 29.769922 25.569844 31.269531 24.820547 32.519531 23.810547 C 35.019531 21.760547 36.340078 18.359687 35.830078 15.179688 C 35.400078 11.969687 33.190234 9.1196094 30.240234 7.8496094 C 29.130234 7.3696094 27.929922 7.1142969 26.728516 7.0800781 z M 51.246094 12.390625 C 49.730957 12.41709 48.216797 12.730859 46.810547 13.349609 C 44.560547 14.319609 42.639141 16.030156 41.369141 18.160156 C 40.739141 19.220156 40.280234 20.389375 39.990234 21.609375 C 39.880234 22.109375 39.809531 22.640625 39.769531 23.140625 C 41.629531 24.830625 45.069219 24.98 45.699219 25 C 45.709219 23.93 45.679531 23.429297 45.769531 22.779297 C 45.889531 22.169297 46.079141 21.560234 46.369141 20.990234 C 46.959141 19.860234 47.909844 18.880781 49.089844 18.300781 C 50.239844 17.700781 51.619219 17.499453 52.949219 17.689453 C 54.269219 17.909453 55.549766 18.529531 56.509766 19.519531 C 57.499766 20.489531 58.139141 21.789922 58.369141 23.169922 C 58.589141 24.559922 58.359219 26.030781 57.699219 27.300781 C 57.029219 28.550781 55.969922 29.639766 54.669922 30.259766 C 54.019922 30.579766 53.329609 30.829922 52.599609 30.919922 C 52.429609 30.959922 52.240547 30.960703 52.060547 30.970703 C 51.870547 30.990703 51.720937 31.01 51.460938 31 L 50.050781 31.009766 C 42.540781 31.049766 35.029297 31.150625 27.529297 31.140625 C 20.019297 31.140625 12.51 31.12 5 31 L 6.9902344 34.980469 C 13.840234 34.880469 20.679297 34.859375 27.529297 34.859375 C 35.029297 34.849375 42.540781 34.950234 50.050781 34.990234 L 51.460938 35 C 51.670937 35 51.979766 34.990469 52.259766 34.980469 C 52.549766 34.970469 52.839141 34.969922 53.119141 34.919922 C 54.259141 34.799922 55.389688 34.460234 56.429688 33.990234 C 58.549688 33.040234 60.310703 31.379141 61.470703 29.369141 C 62.610703 27.339141 63.130859 24.949141 62.880859 22.619141 C 62.640859 20.279141 61.660781 17.990469 60.050781 16.230469 C 58.480781 14.450469 56.309219 13.180391 53.949219 12.650391 C 53.064219 12.462891 52.155176 12.374746 51.246094 12.390625 z M 9.0390625 39 L 9.0390625 39.099609 L 10.990234 43.990234 C 15.900234 43.940234 20.810703 43.919688 25.720703 43.929688 L 42.339844 44.019531 C 44.349844 44.109531 46.210547 45.560234 46.810547 47.490234 C 47.450547 49.410234 46.799687 51.689453 45.179688 52.939453 C 43.619688 54.229453 41.24 54.430625 39.5 53.390625 C 38.63 52.890625 37.910234 52.120937 37.490234 51.210938 C 37.260234 50.760938 37.120781 50.279297 37.050781 49.779297 C 37.000781 49.539297 37.010234 49.279297 36.990234 49.029297 L 37 48.029297 C 36.02 48.099297 34.329766 48.300156 33.009766 48.910156 L 33.009766 49.060547 C 33.029766 49.510547 33.050859 49.950625 33.130859 50.390625 C 33.270859 51.280625 33.539219 52.149453 33.949219 52.939453 C 34.739219 54.549453 36.030078 55.889531 37.580078 56.769531 C 40.680078 58.579531 44.839375 58.239219 47.609375 55.949219 C 48.989375 54.829219 50.030547 53.290078 50.560547 51.580078 C 51.070547 49.870078 51.070781 48.030547 50.550781 46.310547 C 50.010781 44.600547 48.960547 43.070937 47.560547 41.960938 C 46.160547 40.840937 44.410859 40.149297 42.630859 40.029297 L 25.769531 39.580078 C 20.189531 39.410078 14.609063 39.22 9.0390625 39 z"/></svg>