<svg xmlns="http://www.w3.org/2000/svg"  viewBox="0 0 64 64" width="50px" height="50px"><path d="M13.956 51.327L14.102 52.987 19.211 53.104 17.578 57.947 19.089 58.651 21.745 54.285 25.122 58.12 26.487 57.163 24.034 52.68 29.044 51.673 28.898 50.013 23.789 49.896 25.422 45.053 23.911 44.349 21.255 48.715 17.878 44.88 16.513 45.837 18.966 50.32zM20.701 36.926L21.034 35.067 15.48 33.424 18.702 28.611 17.258 27.393 13.058 31.381 10.501 26.185 8.724 26.826 10.078 32.458 4.299 32.074 3.967 33.933 9.52 35.576 6.298 40.389 7.742 41.607 11.942 37.619 14.499 42.815 16.276 42.174 14.922 36.542zM32.697 13.898L31.902 11.942 25.673 13.705 25.845 7.234 23.754 6.945 22.166 13.22 16.648 9.836 15.352 11.503 19.993 16.016 14.303 19.102 15.098 21.058 21.327 19.295 21.155 25.766 23.246 26.055 24.834 19.78 30.353 23.164 31.648 21.497 27.008 16.984zM36.165 8.297L35.275 10.693 42.274 14.216 36.827 19.849 38.456 21.818 45.007 17.518 47.162 25.052 49.681 24.625 49.233 16.802 56.835 18.703 57.725 16.307 50.726 12.784 56.173 7.151 54.544 5.182 47.993 9.482 45.838 1.948 43.318 2.375 43.767 10.198zM44.029 56.877L43.953 55.435 39.531 55.179 41.091 51.034 39.804 50.379 37.372 54.081 34.562 50.657 33.351 51.444 35.341 55.401 30.971 56.123 31.047 57.565 35.469 57.821 33.909 61.966 35.196 62.621 37.628 58.919 40.438 62.343 41.649 61.556 39.659 57.599zM47.191 45.605L46.393 46.207 47.956 48.845 44.973 49.552 45.095 50.545 48.161 50.509 47.281 53.447 48.202 53.838 49.704 51.165 51.809 53.395 52.607 52.793 51.044 50.155 54.027 49.448 53.906 48.455 50.84 48.491 51.719 45.553 50.798 45.162 49.296 47.835z"/></svg>