<svg xmlns="http://www.w3.org/2000/svg"  viewBox="0 0 64 64" width="50px" height="50px"><path d="M 24.5 6 C 17.77 6 12.199688 10.909844 11.179688 17.339844 C 13.129687 16.969844 14.869922 16.999062 16.419922 17.289062 L 15.810547 19.119141 C 9.1505469 19.949141 4 25.61 4 32.5 C 4 35.72 5.1297656 38.68 7.0097656 41 L 20.460938 41 L 24 29 L 41.240234 27 L 36 38 L 45 38 L 42.910156 41 L 57.490234 41 C 59.060234 39.1 60 36.66 60 34 C 60 27.92 55.08 23 49 23 L 48.960938 23 L 48.660156 22.089844 C 49.830156 21.549844 51.360234 21.029766 52.990234 21.009766 C 53.000234 20.839766 53 20.67 53 20.5 C 53 14.7 48.3 10 42.5 10 C 40.01 10 37.719922 10.870312 35.919922 12.320312 C 33.529922 8.5303125 29.32 6 24.5 6 z M 36 31 L 27 32 L 22 46 L 29 46 L 27 55 L 29 56 L 39 41 L 31 41 L 36 31 z M 18.855469 51.160156 C 18.855469 51.160156 14.122187 51.803594 12.992188 52.933594 C 11.862188 54.063594 11.862187 55.895391 12.992188 57.025391 C 14.122188 58.155391 15.952031 58.155391 17.082031 57.025391 C 18.211031 55.896391 18.855469 51.160156 18.855469 51.160156 z M 45.855469 51.160156 C 45.855469 51.160156 41.122188 51.803594 39.992188 52.933594 C 38.862188 54.063594 38.862187 55.895391 39.992188 57.025391 C 41.122187 58.155391 42.952031 58.155391 44.082031 57.025391 C 45.211031 55.896391 45.855469 51.160156 45.855469 51.160156 z"/></svg>