<svg xmlns="http://www.w3.org/2000/svg"  viewBox="0 0 64 64" width="50px" height="50px"><path d="M 24 12 C 16.65 12 10.53 17.299297 9.25 24.279297 C 11.317354 23.917993 13.162698 23.953563 14.820312 24.263672 L 14.203125 26.117188 C 6.7707647 27.007308 1 33.329127 1 41 C 1 44.84 2.4500781 48.35 4.8300781 51 L 59.949219 51 C 61.849219 48.88 63 46.08 63 43 C 63 36.37 57.63 31 51 31 C 50.865071 31 50.735258 31.018967 50.601562 31.023438 L 50.085938 29.478516 C 51.364117 28.80244 53.11454 28.100282 54.990234 28.009766 C 55.000234 27.839766 55 27.67 55 27.5 C 55 21.15 49.85 16 43.5 16 C 40.79707 16 38.316966 16.940383 36.353516 18.501953 C 33.647316 14.577327 29.124372 12 24 12 z"/></svg>