<svg xmlns="http://www.w3.org/2000/svg"  viewBox="0 0 64 64" width="50px" height="50px"><path d="M60 35c0 2.66-.94 5.1-2.51 7H7.01C5.13 39.68 4 36.72 4 33.5c0-6.888 5.153-12.553 11.814-13.384l.61-1.829c-1.554-.291-3.291-.313-5.244.053C12.2 11.91 17.77 7 24.5 7c4.818 0 9.033 2.528 11.421 6.322C37.722 11.872 40.008 11 42.5 11 48.3 11 53 15.7 53 21.5c0 .17 0 .34-.01.51-1.627.023-3.157.537-4.331 1.076l.305.916C48.977 24.002 48.988 24 49 24 55.08 24 60 28.92 60 35zM6 55.558C6 56.907 7.119 58 8.5 58s2.5-1.093 2.5-2.442C11 54.21 8.5 51 8.5 51S6 54.21 6 55.558zM22 55.558C22 56.907 23.119 58 24.5 58c1.381 0 2.5-1.093 2.5-2.442C27 54.21 24.5 51 24.5 51S22 54.21 22 55.558zM14 49.558C14 50.907 15.119 52 16.5 52c1.381 0 2.5-1.093 2.5-2.442C19 48.21 16.5 45 16.5 45S14 48.21 14 49.558zM38 55.558C38 56.907 39.119 58 40.5 58c1.381 0 2.5-1.093 2.5-2.442C43 54.21 40.5 51 40.5 51S38 54.21 38 55.558zM30 49.558C30 50.907 31.119 52 32.5 52c1.381 0 2.5-1.093 2.5-2.442C35 48.21 32.5 45 32.5 45S30 48.21 30 49.558zM54 55.558C54 56.907 55.119 58 56.5 58c1.381 0 2.5-1.093 2.5-2.442C59 54.21 56.5 51 56.5 51S54 54.21 54 55.558zM46 49.558C46 50.907 47.119 52 48.5 52c1.381 0 2.5-1.093 2.5-2.442C51 48.21 48.5 45 48.5 45S46 48.21 46 49.558z"/></svg>