<svg xmlns="http://www.w3.org/2000/svg"  viewBox="0 0 64 64" width="50px" height="50px"><path d="M 42.269531 5.7695312 C 36.309531 7.7395313 32 13.37 32 20 C 32 21.64 32.259766 23.219219 32.759766 24.699219 C 34.639766 26.099219 36.239453 27.960078 37.439453 30.080078 C 38.979453 29.390078 40.7 29 42.5 29 C 46.57 29 50.190469 30.950703 52.480469 33.970703 C 56.600469 32.350703 59.830469 28.950469 61.230469 24.730469 C 57.100469 26.210469 50.339688 25.480313 45.929688 21.070312 C 41.519688 16.660312 40.789531 9.8995312 42.269531 5.7695312 z M 20 7 L 19.763672 8.6542969 C 19.607672 9.7472969 18.74925 10.607672 17.65625 10.763672 L 16 11 L 16 12 L 17.654297 12.236328 C 18.747297 12.392328 19.607672 13.25075 19.763672 14.34375 L 20 16 L 21 16 L 21.236328 14.345703 C 21.392328 13.252703 22.25075 12.392328 23.34375 12.236328 L 25 12 L 25 11 L 23.345703 10.763672 C 22.252703 10.607672 21.392328 9.74925 21.236328 8.65625 L 21 7 L 20 7 z M 8.1113281 18 L 7.9277344 19.287109 C 7.8067344 20.137109 7.1381094 20.805734 6.2871094 20.927734 L 5 21.111328 L 5 21.888672 L 6.2871094 22.072266 C 7.1371094 22.193266 7.8057344 22.861891 7.9277344 23.712891 L 8.1113281 25 L 8.8886719 25 L 9.0722656 23.712891 C 9.1932656 22.862891 9.8618906 22.194266 10.712891 22.072266 L 12 21.888672 L 12 21.111328 L 10.712891 20.927734 C 9.8628906 20.806734 9.1942656 20.138109 9.0722656 19.287109 L 8.8886719 18 L 8.1113281 18 z M 24.5 26 C 17.77 26 12.199688 30.909844 11.179688 37.339844 C 13.132687 36.973844 14.869828 36.996109 16.423828 37.287109 L 15.851562 39.007812 C 9.2905625 39.089812 4 44.421 4 51 C 4 53.62 4.83 56.03 6.25 58 L 58.25 58 C 59.35 56.45 60 54.55 60 52.5 C 60 47.25 55.75 43 50.5 43 C 50.101 43 49.709219 43.030125 49.324219 43.078125 L 48.949219 41.955078 C 50.080219 41.466078 51.495234 41.031766 52.990234 41.009766 C 52.729234 35.439766 48.14 31 42.5 31 C 40.195 31 38.071844 31.750766 36.339844 33.009766 C 34.045844 28.831766 29.606 26 24.5 26 z"/></svg>