<svg xmlns="http://www.w3.org/2000/svg"  viewBox="0 0 64 64" width="50px" height="50px"><path d="M 42.699219 5.6992188 C 36.499219 7.4992188 32 13.2 32 20 C 32 22.6 32.599219 25 33.699219 27 C 34.899219 27.9 36.000391 28.999219 36.900391 30.199219 C 38.600391 29.299219 40.500391 28.900391 42.400391 28.900391 C 46.500391 28.900391 50.100391 30.900391 52.400391 33.900391 C 56.700391 32.300391 60.000781 28.700781 61.300781 24.300781 C 60.000781 24.800781 58.5 25 57 25 C 48.7 25 42 18.3 42 10 C 42 8.5 42.199219 6.9992188 42.699219 5.6992188 z M 20 7 L 19.800781 8.6992188 C 19.600781 9.7992187 18.799219 10.700781 17.699219 10.800781 L 16 11 L 16 12 L 17.699219 12.199219 C 18.699219 12.399219 19.600781 13.300781 19.800781 14.300781 L 20 16 L 21 16 L 21.199219 14.300781 C 21.399219 13.200781 22.200781 12.299219 23.300781 12.199219 L 25 12 L 25 11 L 23.300781 10.800781 C 22.200781 10.600781 21.299219 9.7992188 21.199219 8.6992188 L 21 7 L 20 7 z M 8.0996094 18 L 7.9003906 19.300781 C 7.8003906 20.200781 7.1007812 20.800391 6.3007812 20.900391 L 5 21.099609 L 5 21.900391 L 6.3007812 22.099609 C 7.1007812 22.199609 7.8003906 22.899219 7.9003906 23.699219 L 8.0996094 25 L 8.9003906 25 L 9.0996094 23.699219 C 9.1996094 22.799219 9.8992188 22.199609 10.699219 22.099609 L 12 21.900391 L 12 21.099609 L 10.699219 20.900391 C 9.7992187 20.800391 9.1996094 20.100781 9.0996094 19.300781 L 8.9003906 18 L 8.0996094 18 z M 24.400391 26.099609 C 17.700391 26.099609 12.099609 31.000391 11.099609 37.400391 C 13.099609 37.000391 14.800781 37.100781 16.300781 37.300781 L 15.900391 39 C 9.3003906 39.1 4 44.4 4 51 C 4 53.6 4.7992187 56 6.1992188 58 L 58.199219 58 C 59.299219 56.5 60 54.5 60 52.5 C 60 47.2 55.8 43 50.5 43 C 50.1 43 49.700781 42.999609 49.300781 43.099609 L 48.900391 42 C 50.000391 41.5 51.400391 41.099609 52.900391 41.099609 C 52.600391 35.499609 48.000391 31.099609 42.400391 31.099609 C 40.100391 31.099609 37.999219 31.899609 36.199219 33.099609 C 33.899219 28.899609 29.500391 26.099609 24.400391 26.099609 z"/></svg>