<svg xmlns="http://www.w3.org/2000/svg"  viewBox="0 0 64 64" width="50px" height="50px"><path d="M 42 1.5898438 L 39.140625 5.3496094 C 38.320625 6.4096094 36.890391 6.7992969 35.650391 6.2792969 L 31.289062 4.4492188 L 30.689453 9.140625 C 30.519453 10.470625 29.470625 11.519453 28.140625 11.689453 L 23.449219 12.289062 L 24.439453 14.640625 C 26.979453 15.260625 28.989922 16.229844 30.419922 17.089844 C 32.579922 12.879844 36.96 10 42 10 C 49.17 10 55 15.83 55 23 C 55 26.65 53.490781 29.960312 51.050781 32.320312 C 52.640781 32.790312 54.119219 33.690234 55.199219 34.490234 C 55.409219 34.400234 55.629375 34.340547 55.859375 34.310547 L 60.550781 33.710938 L 58.720703 29.349609 C 58.200703 28.109609 58.590391 26.679375 59.650391 25.859375 L 63.410156 23 L 59.650391 20.140625 C 58.590391 19.320625 58.200703 17.890391 58.720703 16.650391 L 60.550781 12.289062 L 55.859375 11.689453 C 54.529375 11.519453 53.480547 10.470625 53.310547 9.140625 L 52.710938 4.4492188 L 48.349609 6.2792969 C 47.109609 6.7992969 45.679375 6.4096094 44.859375 5.3496094 L 42 1.5898438 z M 21 16.169922 C 14.75 16.169922 9.5691406 20.730937 8.6191406 26.710938 C 10.429141 26.370938 12.050234 26.390156 13.490234 26.660156 L 12.929688 28.359375 C 6.7396875 29.129375 1.9394531 34.400781 1.9394531 40.800781 C 1.9394531 43.480781 2.7709375 45.96 4.2109375 48 L 15.869141 48 L 20 34 L 37.240234 32 L 32 43 L 41 43 L 37.519531 48 L 52.189453 48 C 53.339453 46.35 54 44.349219 54 42.199219 C 54 36.549219 49.419531 31.970703 43.769531 31.970703 C 43.459531 31.970703 43.140078 31.989531 42.830078 32.019531 L 42.529297 31.119141 C 43.619297 30.629141 45.039062 30.139375 46.539062 30.109375 C 46.549062 30.009375 46.550781 29.900781 46.550781 29.800781 C 46.550781 24.420781 42.190781 20.050781 36.800781 20.050781 C 34.800781 20.050781 32.940391 20.659453 31.400391 21.689453 C 29.140391 18.359453 25.32 16.169922 21 16.169922 z M 32 36 L 23 37 L 18 51 L 25 51 L 23 60 L 25 61 L 35 46 L 27 46 L 32 36 z M 14.855469 54.160156 C 14.855469 54.160156 10.122187 54.803594 8.9921875 55.933594 C 7.8621875 57.063594 7.8621875 58.895391 8.9921875 60.025391 C 10.122188 61.155391 11.952031 61.155391 13.082031 60.025391 C 14.211031 58.896391 14.855469 54.160156 14.855469 54.160156 z M 41.855469 54.160156 C 41.855469 54.160156 37.122188 54.803594 35.992188 55.933594 C 34.862188 57.063594 34.862187 58.895391 35.992188 60.025391 C 37.122187 61.155391 38.952031 61.155391 40.082031 60.025391 C 41.211031 58.896391 41.855469 54.160156 41.855469 54.160156 z"/></svg>