<svg xmlns="http://www.w3.org/2000/svg"  viewBox="0 0 64 64" width="50px" height="50px"><path d="M 32 2.9492188 L 29.259766 6.9707031 C 28.529766 8.0407031 27.069531 8.2990625 26.019531 7.5390625 L 22.060547 4.6992188 L 20.859375 9.4199219 C 20.539375 10.669922 19.259766 11.410547 18.009766 11.060547 L 13.330078 9.75 L 13.810547 14.589844 C 13.940547 15.869844 12.979453 17.009375 11.689453 17.109375 L 6.8398438 17.470703 L 8.9492188 21.859375 C 9.5092188 23.019375 9.0100781 24.419219 7.8300781 24.949219 L 3.390625 26.960938 L 6.8691406 30.349609 C 7.0691406 30.539609 7.2298437 30.76 7.3398438 31 L 12.029297 31 C 12.549297 20.43 21.3 12 32 12 C 43.03 12 52 20.97 52 32 C 52 35.3 51.199297 38.420156 49.779297 41.160156 C 50.229297 42.520156 50.860781 44.510078 51.550781 47.080078 C 51.780781 46.980078 52.040547 46.910625 52.310547 46.890625 L 57.160156 46.529297 L 55.050781 42.140625 C 54.490781 40.980625 54.989922 39.580781 56.169922 39.050781 L 60.609375 37.039062 L 57.130859 33.650391 C 56.200859 32.740391 56.200859 31.259609 57.130859 30.349609 L 60.609375 26.960938 L 56.169922 24.949219 C 54.989922 24.419219 54.490781 23.019375 55.050781 21.859375 L 57.160156 17.470703 L 52.310547 17.109375 C 51.020547 17.009375 50.059453 15.869844 50.189453 14.589844 L 50.669922 9.75 L 45.990234 11.060547 C 44.740234 11.410547 43.460625 10.669922 43.140625 9.4199219 L 41.939453 4.6992188 L 37.980469 7.5390625 C 36.930469 8.2990625 35.470234 8.0407031 34.740234 6.9707031 L 32 2.9492188 z M 8.3007812 34 L 8.3007812 39 L 35.5 38.5 L 35.5 34.5 L 8.3007812 34 z M 19.5 43 L 19.5 48 L 47 47.5 L 47 43.5 L 19.5 43 z M 39.699219 52 L 8 52.5 L 8 56.5 L 39.699219 57 L 39.699219 52 z"/></svg>