<svg xmlns="http://www.w3.org/2000/svg"  viewBox="0 0 64 64" width="50px" height="50px"><path d="M 42 5.5898438 L 39.140625 9.3496094 C 38.320625 10.409609 36.890391 10.799297 35.650391 10.279297 L 31.289062 8.4492188 L 30.689453 13.140625 C 30.519453 14.470625 29.470625 15.519453 28.140625 15.689453 L 23.449219 16.289062 L 24.439453 18.640625 C 26.979453 19.260625 28.989922 20.229844 30.419922 21.089844 C 32.579922 16.879844 36.96 14 42 14 C 49.17 14 55 19.83 55 27 C 55 30.64 53.490312 33.940781 51.070312 36.300781 C 52.710313 36.740781 54.349141 37.589375 55.619141 38.359375 C 55.699141 38.339375 55.779375 38.320547 55.859375 38.310547 L 60.550781 37.710938 L 58.720703 33.349609 C 58.200703 32.109609 58.590391 30.679375 59.650391 29.859375 L 63.410156 27 L 59.650391 24.140625 C 58.590391 23.320625 58.200703 21.890391 58.720703 20.650391 L 60.550781 16.289062 L 55.859375 15.689453 C 54.529375 15.519453 53.480547 14.470625 53.310547 13.140625 L 52.710938 8.4492188 L 48.349609 10.279297 C 47.109609 10.799297 45.679375 10.409609 44.859375 9.3496094 L 42 5.5898438 z M 20.5 21 C 13.77 21 8.1996875 25.909844 7.1796875 32.339844 C 9.1326875 31.973844 10.869828 31.996109 12.423828 32.287109 L 11.814453 34.115234 C 5.1524531 34.946234 0 40.612 0 47.5 C 0 50.72 1.1297656 53.68 3.0097656 56 L 53.490234 56 C 55.060234 54.1 56 51.66 56 49 C 56 42.92 51.08 38 45 38 C 44.656 38 44.322328 38.035406 43.986328 38.066406 L 43.658203 37.085938 C 44.832203 36.545938 46.363234 36.032766 47.990234 36.009766 C 48.000234 35.839766 48 35.67 48 35.5 C 48 29.7 43.3 25 37.5 25 C 35.31 25 33.278703 25.670406 31.595703 26.816406 C 29.159703 23.303406 25.103 21 20.5 21 z"/></svg>