<svg xmlns="http://www.w3.org/2000/svg"  viewBox="0 0 64 64" width="50px" height="50px"><path d="M5 8L17 8.14 17 12.86 5 13zM21 8.18L32 8.31 32 12.69 21 12.82zM49 8.5L49 12.5 36 12.65 36 8.35zM5 51L16 51.13 16 55.88 5 56zM33 51.32L33 55.68 20 55.83 20 51.17zM49 51.5L49 55.5 37 55.64 37 51.36zM5 30L16 29.88 16 34.13 5 34zM20 29.83L33 29.68 33 34.32 20 34.17zM49 29.5L49 34.5 37 34.36 37 29.64zM15 19L27 19.14 27 23.86 15 24zM31 19.18L42 19.31 42 23.69 31 23.82zM59 19.5L59 23.5 46 23.65 46 19.35zM15 40L26 40.13 26 44.88 15 45zM30 40.17L39 40.27 39 44.73 30 44.83zM59 40.5L59 44.5 43 44.68 43 40.32z"/></svg>