<svg xmlns="http://www.w3.org/2000/svg"  viewBox="0 0 64 64" width="50px" height="50px"><path d="M 22.089844 13 C 15.159844 13 9.430625 18.050156 8.390625 24.660156 C 10.390625 24.290156 12.179297 24.309375 13.779297 24.609375 L 13.150391 26.490234 C 6.3003906 27.350234 1 33.169766 1 40.259766 C 1 43.569766 2.1596094 46.61 4.0996094 49 L 22.019531 49 C 22.249531 44.54 25.529219 38.989219 30.699219 38.199219 C 31.159219 33.389219 35.57 30 40.5 30 C 42.69 30 44.800469 30.760859 46.480469 32.130859 C 47.930469 31.020859 49.270156 30.369141 50.660156 30.119141 C 50.880156 29.289141 51 28.41 51 27.5 C 51 21.7 46.3 17 40.5 17 C 37.95 17 35.609297 17.909688 33.779297 19.429688 C 31.319297 15.569688 27.009844 13 22.089844 13 z M 40.5 32 C 36.358 32 33 35.358 33 39.5 C 33 39.713 33.01325 39.922859 33.03125 40.130859 L 33.029297 40.130859 C 29.039297 40.830859 26 44.31 26 48.5 C 26 50.2 26.499141 51.789141 27.369141 53.119141 L 39 53.119141 L 41.630859 53.119141 L 43.160156 53.119141 L 46 53.119141 L 60.839844 53.119141 C 62.799844 50.989141 64 48.14 64 45 C 64 38.37 58.63 33 52 33 C 50.69 33 49.430234 33.209609 48.240234 33.599609 C 49.030234 35.139609 48.979375 36.839844 48.859375 37.839844 L 47.830078 37.919922 C 47.769078 37.633922 47.68675 37.355031 47.59375 37.082031 C 47.56775 37.006031 47.539719 36.932422 47.511719 36.857422 C 47.431719 36.645422 47.343141 36.439328 47.244141 36.236328 C 47.213141 36.173328 47.184344 36.108875 47.152344 36.046875 C 46.876344 35.515875 46.538438 35.023172 46.148438 34.576172 C 46.138438 34.564172 46.129141 34.552016 46.119141 34.541016 L 46.115234 34.541016 C 44.741234 32.986016 42.738 32 40.5 32 z"/></svg>