<svg xmlns="http://www.w3.org/2000/svg"  viewBox="0 0 64 64" width="50px" height="50px"><path d="M 26 7 C 21.342985 7 17.374836 9.7261412 15.390625 13.626953 C 9.439286 15.242752 5 20.558901 5 27 C 5 29.165557 5.9210993 31.07062 6.7441406 32.580078 C 7.3885851 33.761989 7.7892077 34.280168 8.0410156 34.630859 C 7.7456601 37.906179 8.3082668 41.111593 10.177734 43.59375 C 12.226259 46.313646 15.679834 48 20 48 L 20 44 C 16.659166 44 14.643522 42.874354 13.373047 41.1875 C 12.102571 39.500646 11.571133 37.061827 11.978516 34.291016 L 12.099609 33.466797 L 11.599609 32.800781 C 11.599609 32.800781 10.932818 31.907558 10.255859 30.666016 C 9.5789011 29.424473 9 27.830443 9 27 C 9 22.099601 12.498459 18.063089 17.119141 17.183594 L 18.185547 16.980469 L 18.595703 15.976562 C 19.788067 13.061985 22.63563 11 26 11 C 30.222878 11 33.635293 14.22731 33.964844 18.353516 L 34.085938 19.861328 L 34.148438 19.873047 C 36.926624 22.756169 39.349359 22.224007 41.857422 20.642578 C 41.857422 24.827578 38.636547 25.287609 39.685547 27.974609 C 40.475547 29.999609 43.505703 29.780703 46.095703 29.220703 C 44.610703 36.275703 38.762766 37.612234 36.509766 39.865234 C 36.509766 42.266061 33.487345 46.439524 28.486328 46.9375 L 28.40625 45.074219 C 28.461001 42.858388 30.36106 42.607683 30.560547 40.808594 C 29.689547 40.388594 28.529937 41.311437 28.210938 40.398438 C 28.209172 40.393384 28.208771 40.382204 28.207031 40.376953 L 28.15625 39.195312 C 31.035914 37.551 34.313834 33.807132 38.021484 33.251953 L 35.119141 31.970703 C 32.207758 31.64337 29.335976 37.002204 27.992188 34.4375 C 27.992787 34.345169 27.994141 34.126755 27.994141 34.052734 C 27.994141 32.709734 29.737094 32.485984 30.246094 30.958984 C 29.547094 30.759984 27.974609 30.647875 27.974609 29.921875 C 27.974609 28.061875 32.339297 27.864031 33.404297 24.457031 C 31.596561 24.967159 27.861317 25.579099 27.523438 24.345703 L 27.28125 18.662109 C 27.28125 18.662109 26.131 21 24.5 21 L 24.173828 29.253906 L 15.148438 23.509766 L 14.148438 25.509766 L 24.003906 33.572266 L 23 59 L 29 59 L 28.882812 56.255859 C 29.585694 49.251811 46.718155 56.300189 54.998047 37.998047 C 54.998047 37.998047 48.998047 38.121047 48.998047 33.998047 C 48.999047 28.312047 58 26.962 58 16 C 58 16 50.283 20.313 47 19 C 42 17 47 9.609375 47 9.609375 C 40.262 6.898375 40.219797 14.622109 34.841797 11.037109 L 34.837891 11.083984 C 32.688676 8.591104 29.554838 7 26 7 z M 55.958984 8 C 54.707736 7.9820659 53.35025 8.4344844 52.476562 10.099609 C 51.079563 12.762609 49 13.265625 49 13.265625 C 52.096 14.705625 54.691938 13.945797 55.710938 11.716797 C 56.798938 9.3367969 59 8.8242188 59 8.8242188 C 59 8.8242188 57.567732 8.0230581 55.958984 8 z"/></svg>