<svg xmlns="http://www.w3.org/2000/svg"  viewBox="0 0 64 64" width="50px" height="50px"><path d="M 7 4 L 4 7 L 56 61 L 60.5 56.5 L 45.724609 42 L 57.490234 42 C 59.060234 40.1 60 37.66 60 35 C 60 28.92 55.08 24 49 24 L 48.960938 24 L 48.660156 23.089844 C 49.830156 22.549844 51.360234 22.029766 52.990234 22.009766 C 53.000234 21.839766 53 21.67 53 21.5 C 53 15.7 48.3 11 42.5 11 C 40.01 11 37.719922 11.870312 35.919922 13.320312 C 33.529922 9.5303125 29.32 7 24.5 7 C 20.545443 7 16.993733 8.695336 14.533203 11.392578 L 7 4 z M 12.539062 20.960938 C 7.5390625 22.930937 4 27.79 4 33.5 C 4 36.72 5.1297656 39.68 7.0097656 42 L 32.800781 42 L 12.539062 20.960938 z M 21.859375 47.160156 C 21.859375 47.160156 17.120234 47.799688 15.990234 48.929688 C 14.860234 50.059688 14.860234 51.899297 15.990234 53.029297 C 17.120234 54.159297 18.950078 54.159297 20.080078 53.029297 C 21.210078 51.899297 21.859375 47.160156 21.859375 47.160156 z M 34.859375 52.160156 C 34.859375 52.160156 30.120234 52.799688 28.990234 53.929688 C 27.860234 55.059688 27.860234 56.899297 28.990234 58.029297 C 30.120234 59.159297 31.950078 59.159297 33.080078 58.029297 C 34.210078 56.899297 34.859375 52.160156 34.859375 52.160156 z"/></svg>