<svg xmlns="http://www.w3.org/2000/svg"  viewBox="0 0 64 64" width="50px" height="50px"><path d="M 30 2.3007812 C 21.16 6.3007813 15 15.189531 15 25.519531 C 15 29.089531 15.730547 32.490078 17.060547 35.580078 L 31 36 L 32 44 L 43 45 L 43.960938 50.759766 C 52.780938 49.559766 60.159219 43.83 63.699219 36 C 60.499219 37.45 56.950703 38.259766 53.220703 38.259766 C 39.140703 38.259766 27.740234 26.859297 27.740234 12.779297 C 27.740234 9.0492969 28.55 5.5007813 30 2.3007812 z M 3.3007812 38 L 3.3007812 43 L 28.5 42.5 L 28.5 38.5 L 3.3007812 38 z M 14.5 47 L 14.5 52 L 40 51.5 L 40 47.5 L 14.5 47 z M 32.699219 56 L 3 56.5 L 3 60.5 L 32.699219 61 L 32.699219 56 z"/></svg>