<svg xmlns="http://www.w3.org/2000/svg"  viewBox="0 0 64 64" width="50px" height="50px"><path d="M 14 4 C 14 4 11.107422 7.6679844 11.107422 9.2089844 C 11.107422 10.750984 12.402 12 14 12 C 15.598 12 16.892578 10.750984 16.892578 9.2089844 C 16.892578 7.6669844 14 4 14 4 z M 50 4 C 50 4 47.107422 7.6669844 47.107422 9.2089844 C 47.107422 10.750984 48.402 12 50 12 C 51.598 12 52.892578 10.750984 52.892578 9.2089844 C 52.892578 7.6679844 50 4 50 4 z M 31 7 L 30.580078 12.037109 C 17.571374 12.684879 7.1031592 22.161673 6.0898438 34.089844 L 8 35 C 8 35 11 33 13.5 33 C 16 33 18.908203 35 18.908203 35 L 21.044922 35 C 21.044922 35 23.501953 33 26.001953 33 C 27.84883 33 29.682546 34.08594 30.521484 34.65625 L 30.449219 41.5 L 30.289062 55.630859 C 30.239062 56.240859 29.830781 56.779297 29.300781 57.029297 C 28.780781 57.279297 28.120156 57.229922 27.660156 56.919922 C 27.180156 56.619922 26.899687 56.059297 26.929688 55.529297 L 27 52 C 24.73 52.68 23.399062 53.630156 23.039062 53.910156 L 23.080078 55.599609 C 23.130078 57.439609 24.179531 59.209609 25.769531 60.099609 C 27.349531 61.019609 29.369219 61.039922 30.949219 60.169922 C 32.529219 59.319922 33.599688 57.629375 33.679688 55.859375 L 33.550781 41.5 L 33.478516 34.65625 C 34.317454 34.08594 36.15117 33 37.998047 33 C 40.498047 33 42.955078 35 42.955078 35 L 45.091797 35 C 45.091797 35 48 33 50.5 33 C 53 33 56 35 56 35 L 57.910156 34.089844 C 56.896841 22.161673 46.428626 12.684879 33.419922 12.037109 L 33 7 L 31 7 z M 6 11 C 6 11 3.1074219 14.667984 3.1074219 16.208984 C 3.1074219 17.750984 4.402 19 6 19 C 7.598 19 8.8925781 17.750984 8.8925781 16.208984 C 8.8925781 14.666984 6 11 6 11 z M 58 11 C 58 11 55.107422 14.666984 55.107422 16.208984 C 55.107422 17.750984 56.402 19 58 19 C 59.598 19 60.892578 17.750984 60.892578 16.208984 C 60.892578 14.667984 58 11 58 11 z"/></svg>