<svg xmlns="http://www.w3.org/2000/svg"  viewBox="0 0 64 64" width="50px" height="50px"><path d="M60 33c0 2.66-.94 5.1-2.51 7H7.01C5.13 37.68 4 34.72 4 31.5c0-6.888 5.153-12.553 11.814-13.384l.61-1.829c-1.554-.291-3.291-.313-5.244.053C12.2 9.91 17.77 5 24.5 5c4.818 0 9.033 2.528 11.421 6.322C37.722 9.872 40.008 9 42.5 9 48.3 9 53 13.7 53 19.5c0 .17 0 .34-.01.51-1.627.023-3.157.537-4.331 1.076l.305.916C48.977 22.002 48.988 22 49 22 55.08 22 60 26.92 60 33zM9.08 56.72L11.91 57.7 10.81 60.8 7.99 59.8zM17.13 43L12.91 54.88 10.08 53.9 13.96 43zM18.4 55.83L21.23 56.8 19.81 60.8 16.99 59.8zM20.63 49.57L23.46 50.54 22.23 53.99 19.4 53.01zM26.13 43L24.46 47.72 21.63 46.75 22.96 43zM28.57 52.55L31.4 53.52 28.81 60.8 25.99 59.8zM35.13 43L32.4 50.7 29.57 49.73 31.96 43zM36.08 56.72L38.91 57.7 37.81 60.8 34.99 59.8zM38.63 49.57L41.46 50.54 39.91 54.88 37.08 53.9zM44.13 43L42.46 47.72 39.63 46.75 40.96 43zM45.83 54.63L48.65 55.61 46.81 60.8 43.99 59.8zM53.13 43L49.66 52.79 46.83 51.81 49.96 43z"/></svg>