<svg xmlns="http://www.w3.org/2000/svg"  viewBox="0 0 64 64" width="50px" height="50px"><path d="M35.945 9.366c-1.756 3.498-3.251 7.389-3.923 11.148-.306 1.884-.432 3.746-.06 5.313.36 1.603 1.231 3.057 2.397 4.812 1.144 1.721 2.502 3.94 3.01 6.507.265 1.26.346 2.567.275 3.769-.04 1.223-.221 2.385-.431 3.531-.46 2.271-1.162 4.406-1.976 6.473-.833 2.086-1.728 4.009-2.874 6.053l-5.13-3.111c1.955-3.235 3.707-6.989 4.603-10.588.414-1.808.64-3.59.373-5.137-.243-1.575-1.008-3.062-2.095-4.849-1.065-1.752-2.357-3.978-2.809-6.505-.225-1.237-.294-2.537-.188-3.698.061-1.19.26-2.321.485-3.435.472-2.219 1.192-4.304 2.007-6.329.831-2.036 1.737-3.946 2.844-5.909L35.945 9.366zM53.945 9.366c-1.756 3.498-3.251 7.389-3.923 11.148-.306 1.884-.432 3.746-.06 5.313.36 1.603 1.231 3.057 2.397 4.812 1.144 1.721 2.502 3.94 3.01 6.507.265 1.26.346 2.567.275 3.769-.04 1.223-.221 2.385-.431 3.531-.46 2.271-1.162 4.406-1.976 6.473-.833 2.086-1.728 4.009-2.874 6.053l-5.13-3.111c1.955-3.235 3.707-6.989 4.603-10.588.414-1.808.64-3.59.373-5.137-.243-1.575-1.008-3.062-2.095-4.849-1.065-1.752-2.357-3.978-2.809-6.505-.225-1.237-.294-2.537-.188-3.698.061-1.19.26-2.321.485-3.435.472-2.219 1.192-4.304 2.007-6.329.831-2.036 1.737-3.946 2.844-5.909L53.945 9.366zM17.945 9.366c-1.756 3.498-3.251 7.389-3.923 11.148-.306 1.884-.432 3.746-.06 5.313.36 1.603 1.231 3.057 2.397 4.812 1.144 1.721 2.502 3.94 3.01 6.507.265 1.26.346 2.567.275 3.769-.04 1.223-.221 2.385-.431 3.531-.46 2.271-1.162 4.406-1.976 6.473-.833 2.086-1.728 4.009-2.874 6.053l-5.13-3.111c1.955-3.235 3.707-6.989 4.603-10.588.414-1.808.64-3.59.373-5.137-.243-1.575-1.008-3.062-2.095-4.849-1.065-1.752-2.357-3.978-2.809-6.505-.225-1.237-.294-2.537-.188-3.698.061-1.19.26-2.321.485-3.435.472-2.219 1.192-4.304 2.007-6.329.831-2.036 1.737-3.946 2.844-5.909L17.945 9.366z"/></svg>